<svg width="132" height="85" viewBox="0 0 132 85" fill="none" xmlns="http://www.w3.org/2000/svg">
<path fill-rule="evenodd" clip-rule="evenodd" d="M0 42.4326C0 41.1823 0.49665 39.9833 1.38069 39.0993C2.26474 38.2152 3.46376 37.7186 4.71398 37.7186L115.898 37.7186L86.2282 8.0582C85.343 7.17303 84.8458 5.9725 84.8458 4.72069C84.8458 3.46889 85.343 2.26835 86.2282 1.38319C87.1134 0.498032 88.3139 0.00075531 89.5657 0.00075531C90.8175 0.00075531 92.0181 0.498032 92.9032 1.38319L130.615 39.0951C131.054 39.533 131.402 40.0532 131.64 40.6259C131.878 41.1986 132 41.8125 132 42.4326C132 43.0526 131.878 43.6666 131.64 44.2393C131.402 44.812 131.054 45.3322 130.615 45.7701L92.9032 83.4819C92.0181 84.3671 90.8175 84.8644 89.5657 84.8644C88.3139 84.8644 87.1134 84.3671 86.2282 83.4819C85.343 82.5968 84.8458 81.3962 84.8458 80.1444C84.8458 78.8926 85.343 77.6921 86.2282 76.8069L115.898 47.1466L4.71398 47.1466C3.46376 47.1466 2.26474 46.6499 1.38069 45.7659C0.49665 44.8818 0 43.6828 0 42.4326Z" fill="#CFD1DF"/>
</svg>
