<svg width="135" height="106" viewBox="0 0 135 106" fill="none" xmlns="http://www.w3.org/2000/svg">
<path d="M9.59822 47.9912H67.1875V57.5894H9.59822V47.9912ZM0 23.9956H47.9911V33.5938H0V23.9956Z" fill="#BF86AE"/>
<path d="M133.986 50.8994L119.589 17.3056C119.219 16.4421 118.604 15.7062 117.82 15.1892C117.036 14.6722 116.118 14.3968 115.179 14.3973H100.781V4.79911C100.781 3.52631 100.276 2.30563 99.3756 1.40563C98.4756 0.50562 97.2549 0 95.9821 0H19.1963V9.59822H91.183V69.8558C88.9962 71.1256 87.0824 72.8158 85.552 74.8289C84.0216 76.842 82.9049 79.1381 82.2662 81.5849H52.1086C50.9405 77.0609 48.1627 73.1183 44.2956 70.496C40.4286 67.8737 35.738 66.7518 31.1029 67.3405C26.4679 67.9293 22.2067 70.1882 19.118 73.694C16.0293 77.1998 14.3253 81.7117 14.3253 86.384C14.3253 91.0562 16.0293 95.5681 19.118 99.0739C22.2067 102.58 26.4679 104.839 31.1029 105.427C35.738 106.016 40.4286 104.894 44.2956 102.272C48.1627 99.6496 50.9405 95.707 52.1086 91.1831H82.2662C83.3102 95.3018 85.6977 98.9549 89.0511 101.564C92.4044 104.174 96.5322 105.591 100.781 105.591C105.03 105.591 109.158 104.174 112.511 101.564C115.865 98.9549 118.252 95.3018 119.296 91.1831H129.576C130.849 91.1831 132.069 90.6775 132.969 89.7775C133.869 88.8774 134.375 87.6568 134.375 86.384V52.7902C134.375 52.1401 134.243 51.4967 133.986 50.8994ZM33.5937 95.9822C31.6953 95.9822 29.8396 95.4193 28.2612 94.3646C26.6828 93.3099 25.4525 91.8109 24.7261 90.057C23.9996 88.3032 23.8095 86.3733 24.1799 84.5114C24.5502 82.6496 25.4644 80.9393 26.8067 79.597C28.149 78.2547 29.8593 77.3405 31.7211 76.9702C33.583 76.5998 35.5129 76.7899 37.2667 77.5164C39.0206 78.2428 40.5196 79.4731 41.5743 81.0515C42.629 82.6299 43.1919 84.4856 43.1919 86.384C43.1893 88.9288 42.1773 91.3687 40.3778 93.1681C38.5784 94.9676 36.1385 95.9796 33.5937 95.9822ZM100.781 23.9955H112.011L122.3 47.9911H100.781V23.9955ZM100.781 95.9822C98.8828 95.9822 97.0271 95.4193 95.4487 94.3646C93.8703 93.3099 92.6401 91.8109 91.9136 90.057C91.1871 88.3032 90.997 86.3733 91.3674 84.5114C91.7377 82.6496 92.6519 80.9393 93.9942 79.597C95.3366 78.2547 97.0468 77.3405 98.9087 76.9702C100.771 76.5998 102.7 76.7899 104.454 77.5164C106.208 78.2428 107.707 79.4731 108.762 81.0515C109.816 82.6299 110.379 84.4856 110.379 86.384C110.377 88.9288 109.365 91.3687 107.565 93.1681C105.766 94.9676 103.326 95.9796 100.781 95.9822ZM124.777 81.5849H119.296C118.239 77.4741 115.848 73.8303 112.497 71.2248C109.146 68.6193 105.026 67.1993 100.781 67.1875V57.5893H124.777V81.5849Z" fill="#BF86AE"/>
<path d="M87 76.5975L71.7185 61.3159C69.344 58.9421 68.0096 55.7223 68.0089 52.3648V13.2937" stroke="#BF86AE" stroke-width="12" stroke-linecap="round" stroke-linejoin="round"/>
</svg>
