<svg width="105" height="75" viewBox="0 0 105 75" fill="none" xmlns="http://www.w3.org/2000/svg">
<path d="M71.0938 52.2393C70.1075 52.2393 69.1616 52.6311 68.4642 53.3285C67.7668 54.0259 67.375 54.9717 67.375 55.958C67.375 56.9443 67.7668 57.8902 68.4642 58.5876C69.1616 59.285 70.1075 59.6768 71.0938 59.6768H85.9688C86.955 59.6768 87.9009 59.285 88.5983 58.5876C89.2957 57.8902 89.6875 56.9443 89.6875 55.958C89.6875 54.9717 89.2957 54.0259 88.5983 53.3285C87.9009 52.6311 86.955 52.2393 85.9688 52.2393H71.0938ZM0.4375 15.0518C0.4375 11.1067 2.00468 7.32315 4.79429 4.53354C7.58389 1.74394 11.3674 0.176758 15.3125 0.176758H89.6875C93.6326 0.176758 97.4161 1.74394 100.206 4.53354C102.995 7.32315 104.562 11.1067 104.562 15.0518V59.6768C104.562 63.6219 102.995 67.4054 100.206 70.195C97.4161 72.9846 93.6326 74.5518 89.6875 74.5518H15.3125C11.3674 74.5518 7.58389 72.9846 4.79429 70.195C2.00468 67.4054 0.4375 63.6219 0.4375 59.6768V15.0518ZM97.125 15.0518C97.125 13.0792 96.3414 11.1875 94.9466 9.79265C93.5518 8.39785 91.66 7.61426 89.6875 7.61426H15.3125C13.34 7.61426 11.4482 8.39785 10.0534 9.79265C8.65859 11.1875 7.875 13.0792 7.875 15.0518V22.4893H97.125V15.0518ZM7.875 59.6768C7.875 61.6493 8.65859 63.5411 10.0534 64.9359C11.4482 66.3307 13.34 67.1143 15.3125 67.1143H89.6875C91.66 67.1143 93.5518 66.3307 94.9466 64.9359C96.3414 63.5411 97.125 61.6493 97.125 59.6768V29.9268H7.875V59.6768Z" fill="#BF86AE"/>
</svg>
