<svg width="67" height="71" viewBox="0 0 67 71" fill="none" xmlns="http://www.w3.org/2000/svg">
<path d="M38.3885 64.7283C40.4321 68.515 43.7392 71 47.4921 71C53.6603 71 58.6395 64.3733 58.6395 56.2083C58.6395 55.3936 58.5887 54.5519 58.4873 53.75H58.4165V53.25L58.6395 53.215L58.9105 53.1724C58.9142 53.1966 58.918 53.2209 58.9217 53.2451C63.4338 53.0891 67 49.2053 67 44.375L38.3885 64.7283ZM38.3885 64.7283C36.8278 64.965 35.23 65.0833 33.5579 65.0833M38.3885 64.7283L33.5579 65.0833M33.5579 65.0833C31.8858 65.0833 30.2881 64.965 28.7274 64.7283L33.5579 65.0833ZM12.2595 36.5866L12.011 36.9218L11.6368 36.7374C10.664 36.2579 9.58762 36 8.47644 36C4.13557 36 0.615944 39.692 0.615944 44.375C0.615944 49.058 4.13558 52.75 8.47644 52.75H8.69939H9.28402L9.19334 53.3276C9.04908 54.2464 8.97644 55.2459 8.97644 56.2083C8.97644 60.1928 10.192 63.7827 12.1365 66.3653C14.0807 68.9475 16.7313 70.5 19.6238 70.5C23.1374 70.5 26.301 68.1714 28.2874 64.4909L28.4545 64.1812L28.8024 64.234C30.3371 64.4667 31.9098 64.5833 33.5579 64.5833C35.2061 64.5833 36.7788 64.4667 38.3135 64.234L38.6614 64.1812L38.8285 64.4909C40.8149 68.1714 43.9785 70.5 47.4921 70.5C50.3846 70.5 53.0352 68.9475 54.9794 66.3653C56.9239 63.7827 58.1395 60.1928 58.1395 56.2083C58.1395 55.2459 58.0668 54.2464 57.9226 53.3276L57.8319 52.75H58.4165H58.6395C62.9803 52.75 66.5 49.058 66.4999 44.375L66.5 44.3734C66.5045 42.9734 66.1779 41.5959 65.5517 40.3673C64.9256 39.1389 64.0209 38.1003 62.923 37.3442C61.8253 36.5883 60.569 36.1384 59.2693 36.0332C57.9696 35.928 56.6648 36.1704 55.4738 36.74L55.1019 36.9178L54.8564 36.5866C53.1203 34.2446 50.7623 32.2389 47.9567 30.6917L47.48 30.4289L47.7823 29.9762C49.8115 26.9374 51.0795 23.1676 51.0795 19.1306V18.8939V18.4981L51.4647 18.4072C55.2396 17.5168 58.1395 13.9022 58.1395 9.54556C58.1395 4.54704 54.2854 0.5 49.6473 0.5C47.2309 0.5 44.9906 1.57898 43.5237 3.28438L43.2338 3.62143L42.8652 3.37294C40.0799 1.49548 36.8518 0.500292 33.5579 0.500292C30.2641 0.500292 27.036 1.49548 24.2507 3.37294L23.8821 3.62143L23.5922 3.28438C22.1253 1.57898 19.885 0.5 17.4686 0.5C12.8305 0.5 8.97644 4.54704 8.97644 9.54556C8.97644 13.943 11.8767 17.5534 15.6829 18.406L16.0736 18.4935V18.8939V19.1306C16.0736 23.1691 17.3052 26.8988 19.3701 29.9752L19.6758 30.4307L19.194 30.693C16.3527 32.2398 13.9953 34.2449 12.2595 36.5866ZM25.6974 56.2083C25.6974 58.357 25.0461 60.3189 23.9669 61.7548C22.8873 63.1912 21.3575 64.1239 19.6238 64.1239C17.8901 64.1239 16.3602 63.1912 15.2807 61.7548C14.2015 60.3189 13.5501 58.357 13.5501 56.2083C13.5501 54.0784 14.2021 52.1263 15.2812 50.6956C16.3607 49.2646 17.8903 48.3322 19.6238 48.3322C21.3573 48.3322 22.8869 49.2646 23.9663 50.6956C25.0455 52.1263 25.6974 54.0784 25.6974 56.2083ZM42.4184 25.1656C42.4184 29.5614 38.3811 33.0417 33.5579 33.0417C28.7348 33.0417 24.6974 29.5614 24.6974 25.1656C24.6974 20.7319 28.733 17.25 33.5579 17.25C38.3829 17.25 42.4184 20.7319 42.4184 25.1656ZM53.5658 56.2083C53.5658 58.357 52.9144 60.3189 51.8352 61.7548C50.7557 63.1912 49.2258 64.1239 47.4921 64.1239C45.7584 64.1239 44.2286 63.1912 43.149 61.7548C42.0698 60.3189 41.4184 58.357 41.4184 56.2083C41.4184 54.0784 42.0704 52.1263 43.1496 50.6956C44.229 49.2646 45.7586 48.3322 47.4921 48.3322C49.2256 48.3322 50.7552 49.2646 51.8347 50.6956C52.9138 52.1263 53.5658 54.0784 53.5658 56.2083ZM33.5579 21.2083C32.3383 21.2083 31.2711 22.297 31.2711 23.6667C31.2711 25.0363 32.3383 26.125 33.5579 26.125C34.7776 26.125 35.8448 25.0363 35.8448 23.6667C35.8448 22.297 34.7776 21.2083 33.5579 21.2083Z" fill="#BF86AE" stroke="#BF86AE"/>
</svg>
